<svg height="512pt" viewBox="0 -77 512 512" width="512pt" xmlns="http://www.w3.org/2000/svg"><path d="m392.53125 349.867188h93.867188c9.425781 0 17.070312-7.640626 17.070312-17.066407v-307.199219c0-9.425781-7.644531-17.070312-17.070312-17.070312h-460.796876c-9.425781 0-17.070312 7.644531-17.070312 17.070312v307.199219c0 9.425781 7.644531 17.066407 17.070312 17.066407zm0 0" fill="#37474f"/><path d="m372.667969 349.867188h88.984375c4.414062-.113282 8.605468-1.972657 11.644531-5.175782 3.042969-3.199218 4.683594-7.476562 4.570313-11.890625v-307.199219c.113281-4.414062-1.53125-8.695312-4.570313-11.894531s-7.230469-5.0625-11.644531-5.175781h-436.90625c-4.414063.113281-8.601563 1.976562-11.640625 5.175781-3.042969 3.199219-4.6875 7.480469-4.570313 11.894531v307.199219c-.117187 4.414063 1.527344 8.691407 4.570313 11.890625 3.039062 3.203125 7.226562 5.0625 11.640625 5.175782zm0 0" fill="#607d8b"/><path d="m503.46875 238.933594v93.867187c-.03125 9.414063-7.65625 17.039063-17.070312 17.066407h-460.796876c-9.414062-.027344-17.039062-7.652344-17.070312-17.066407v-93.867187zm0 0" fill="#ffb301"/><path d="m477.871094 238.933594-.003906 93.867187c.210937 9.179688-7.035157 16.804688-16.214844 17.066407h-436.90625c-9.179688-.261719-16.421875-7.886719-16.210938-17.066407l-.003906-93.867187zm0 0" fill="#fec108"/><path d="m8.53125 119.46875h494.933594v119.464844h-494.933594zm0 0" fill="#c52828"/><path d="m8.53125 119.46875h469.335938v119.464844h-469.335938zm0 0" fill="#f44335"/><path d="m486.398438 0h-460.796876c-14.140624 0-25.601562 11.460938-25.601562 25.601562v307.199219c0 14.136719 11.460938 25.597657 25.601562 25.597657h460.796876c14.140624 0 25.601562-11.460938 25.601562-25.597657v-307.199219c0-14.140624-11.460938-25.601562-25.601562-25.601562zm-460.796876 17.066406h460.796876c4.714843 0 8.535156 3.820313 8.535156 8.535156v85.332032h-477.867188v-85.332032c0-4.714843 3.820313-8.535156 8.535156-8.535156zm469.332032 213.332032h-477.867188v-102.398438h477.867188zm-8.535156 110.933593h-460.796876c-4.714843 0-8.535156-3.820312-8.535156-8.53125v-85.332031h477.867188v85.332031c0 4.710938-3.820313 8.53125-8.535156 8.53125zm0 0"/></svg>