<svg height="512pt" viewBox="0 -77 512 512" width="512pt" xmlns="http://www.w3.org/2000/svg"><path d="m392.53125 349.867188h93.867188c9.386718 0 17.070312-7.679688 17.070312-17.066407v-307.199219c0-9.386718-7.683594-17.070312-17.070312-17.070312h-460.796876c-9.386718 0-17.070312 7.683594-17.070312 17.070312v307.199219c0 9.386719 7.683594 17.066407 17.070312 17.066407zm0 0" fill="#c52828"/><path d="m372.90625 349.867188h88.746094c4.269531 0 8.535156-1.707032 11.949218-5.121094 2.558594-3.410156 4.265626-7.679688 4.265626-11.945313v-307.199219c0-4.269531-1.707032-8.535156-4.265626-11.949218-3.414062-3.414063-7.679687-5.121094-11.949218-5.121094h-436.90625c-4.265625 0-8.53125 1.707031-11.945313 5.121094-3.414062 3.414062-4.269531 7.679687-4.269531 11.949218v307.199219c0 4.265625 1.707031 8.53125 4.269531 11.945313 2.558594 3.414062 7.679688 5.121094 11.945313 5.121094zm0 0" fill="#f44335"/><path d="m335.359375 146.773438 23.039063 7.679687 20.480468-14.507813v24.746094l20.480469 14.507813-23.890625 7.679687-7.683594 23.894532-14.503906-20.480469h-24.75l14.507812-19.625zm0 0" fill="#fff"/><path d="m486.398438 0h-460.796876c-14.507812 0-25.601562 11.09375-25.601562 25.601562v307.199219c0 14.507813 11.09375 25.597657 25.601562 25.597657h460.796876c14.507812 0 25.601562-11.089844 25.601562-25.597657v-307.199219c0-14.507812-11.09375-25.601562-25.601562-25.601562zm8.535156 332.800781c0 5.121094-3.414063 8.53125-8.535156 8.53125h-460.796876c-5.121093 0-8.535156-3.410156-8.535156-8.53125v-307.199219c0-5.121093 3.414063-8.535156 8.535156-8.535156h460.796876c5.121093 0 8.535156 3.414063 8.535156 8.535156zm0 0"/><path d="m403.628906 163.839844-17.070312-11.945313v-20.480469c0-3.414062-1.707032-5.972656-4.265625-7.679687-2.558594-1.707031-5.972657-.855469-9.386719.851563l-15.359375 11.945312-19.628906-6.824219c-3.410157-.855469-6.824219 0-8.53125 1.707031-1.707031 1.707032-3.414063 5.972657-1.707031 8.53125l6.828124 19.628907-11.949218 16.210937c-1.707032 2.5625-2.558594 5.972656-.851563 9.386719 1.707031 2.5625 4.265625 4.269531 7.679688 4.269531h20.480469l11.945312 17.066406c1.707031 2.558594 4.265625 3.414063 6.828125 3.414063h1.707031c3.414063-.855469 5.972656-2.5625 6.828125-5.976563l5.972657-19.625 19.625-5.972656c3.414062-.855468 5.121093-3.414062 5.972656-6.828125-.851563-2.558593-2.558594-5.972656-5.117188-7.679687zm-30.722656 5.972656c-2.558594.851562-5.121094 2.558594-5.972656 5.972656l-2.558594 7.679688-4.269531-5.972656c-1.707031-2.558594-4.265625-3.414063-6.824219-3.414063h-7.679688l4.265626-5.972656c1.707031-2.558594 2.558593-5.117188.851562-7.679688l-2.558594-7.679687 7.679688 2.5625c2.558594.851562 5.972656.851562 7.679687-.855469l5.972657-4.265625v7.679688c0 2.558593 1.707031 5.121093 3.414062 6.828124l5.972656 4.265626zm0 0"/><path d="m312.320312 227.839844c-26.453124 26.453125-69.972656 26.453125-96.425781-.851563-26.457031-27.308593-26.453125-69.972656 0-96.429687 26.453125-26.453125 69.117188-26.453125 96.425781-.851563 3.414063 2.558594 7.679688 3.414063 11.09375.851563 3.410157-2.558594 4.265626-7.679688 2.558594-11.089844-27.308594-46.082031-81.917968-69.976562-134.828125-55.46875-52.90625 14.507812-88.746093 60.585938-88.746093 115.199219s36.695312 101.546875 88.75 115.199219c52.050781 13.65625 107.519531-9.386719 133.972656-56.320313 1.707031-3.410156.851562-8.53125-2.5625-11.089844-2.558594-2.5625-6.824219-1.707031-10.238282.851563zm0 0"/><path d="m264.53125 256c20.480469 0 39.253906-7.679688 53.761719-22.1875-24.746094 43.519531-75.945313 65.707031-124.585938 52.054688-48.640625-11.949219-82.773437-56.320313-82.773437-106.667969 0-50.347657 34.132812-94.71875 82.773437-107.519531 48.640625-12.800782 99.839844 8.53125 124.585938 52.050781-24.746094-23.890625-62.292969-29.011719-93.011719-11.089844-30.722656 17.917969-44.375 52.90625-34.988281 86.1875 9.386719 34.132813 39.253906 57.171875 74.238281 57.171875zm0 0" fill="#fff"/><path d="m221.867188 298.667969c-10.238282 0-20.480469-1.707031-30.71875-4.269531-52.054688-13.652344-88.75-61.4375-88.75-115.199219 0-53.757813 36.695312-101.546875 88.75-115.199219 52.050781-13.652344 107.519531 9.386719 133.972656 56.320312 1.707031 3.414063.851562 8.53125-2.5625 11.09375-3.410156 2.558594-8.53125 2.558594-11.089844-.855468-22.1875-21.332032-55.46875-25.597656-81.921875-10.238282-26.453125 15.359376-39.253906 46.933594-31.574219 76.800782 7.679688 29.867187 34.988282 50.347656 65.707032 50.347656 17.921874 0 34.988281-6.828125 47.789062-19.628906 3.414062-2.558594 7.679688-3.414063 11.09375-.851563 3.410156 2.558594 4.265625 7.679688 2.558594 11.089844-21.335938 38.402344-61.441406 60.589844-103.253906 60.589844zm0-221.867188c-8.53125 0-17.066407.851563-26.453126 3.414063-44.375 11.945312-75.945312 52.90625-75.945312 98.984375 0 46.082031 31.570312 87.039062 75.945312 98.988281 29.867188 7.679688 60.585938 1.707031 85.332032-15.359375-5.117188.851563-11.09375 1.707031-16.210938 1.707031-38.402344 0-72.535156-25.601562-82.773437-63.148437-10.242188-36.691407 5.972656-76.800781 39.253906-96.425781 18.769531-11.09375 39.25-13.652344 59.730469-10.242188-17.066406-11.089844-37.546875-17.917969-58.878906-17.917969zm0 0"/></svg>